# xmcd CD database file
#
# Track frame offsets:
#	150
#	20842
#	40425
#
# Disc length: 811 seconds
#
# Revision: 1
# Processed by: cddbd v1.5PL3 Copyright (c) Steve Scherf et al.
# Submitted via: CDex 1.51
#
DISCID=23032903
DTITLE=八反安未果 - Miss You 〜忘れないで〜
DYEAR=1998
DGENRE=JPop
TTITLE0=Miss You 〜忘れないで〜
TTITLE1=Carry On
TTITLE2=Miss You 〜忘れないで〜 (instrumental)
EXTD=YEAR: 1998
EXTT0=
EXTT1=
EXTT2=
PLAYORDER=
